<?xml version="1.0" encoding="utf-8"?>
<!-- Generator: Adobe Illustrator 21.0.0, SVG Export Plug-In . SVG Version: 6.00 Build 0)  -->
<svg version="1.1" id="Layer_1" xmlns="http://www.w3.org/2000/svg" xmlns:xlink="http://www.w3.org/1999/xlink" x="0px" y="0px"
	 viewBox="0 0 150 300" style="enable-background:new 0 0 150 300;" xml:space="preserve">
<style type="text/css">
	.st0{fill:#1D1D1B;}
	.st1{fill:#D9D9D9;}
	.st2{fill:#F5F5F5;}
	.st3{fill:#36A8E0;}
	.st4{fill:#3C3C3B;}
	.st5{fill:#ECECEC;}
	.st6{font-family:'Arimo-Bold';}
	.st7{font-size:8.0678px;}
	.st8{font-size:14.6377px;}
	.st9{fill:#575756;}
	.st10{font-size:12.0366px;}
</style>
<g>
	
		<image style="overflow:visible;opacity:0.3;" width="186" height="332" xlink:href="815CA313.png"  transform="matrix(1 0 0 1 -6 -4)">
	</image>
	<g>
		<g>
			<g>
				<path class="st0" d="M117.9,5.1H32.1C16.4,5.1,3.7,17.8,3.7,33.5v233.1c0,15.6,12.7,28.3,28.3,28.3h85.9v0
					c15.6,0,28.3-12.7,28.3-28.3V33.5C146.3,17.8,133.6,5.1,117.9,5.1z"/>
				<path class="st1" d="M132.2,42.8h-116c-1.1,0-2,0.9-2,2v209c0,1.1,0.9,2,2,2h116c1.1,0,2-0.9,2-2v-209
					C134.2,43.6,133.3,42.8,132.2,42.8z"/>
				<path class="st2" d="M14.3,165v88.8c0,1.1,0.9,2,2,2h116c1.1,0,2-0.9,2-2V165H14.3z"/>
				<path class="st3" d="M134.2,67.7v-23c0-1.1-0.9-2-2-2h-116c-1.1,0-2,0.9-2,2v23H134.2z"/>
				<path class="st4" d="M63.8,32.5h20.7c1.1,0,2-0.9,2-2c0-1.1-0.9-2-2-2H63.8c-1.1,0-2,0.9-2,2C61.8,31.6,62.7,32.5,63.8,32.5z"/>
				<circle class="st4" cx="75" cy="20" r="2.1"/>
				<circle class="st4" cx="56.3" cy="30.5" r="2.1"/>
				<path class="st4" d="M75,280.5c-5.1,0-9.2-4.1-9.2-9.2c0-5.1,4.1-9.2,9.2-9.2c5.1,0,9.2,4.1,9.2,9.2
					C84.2,276.3,80.1,280.5,75,280.5z"/>
			</g>
			<text transform="matrix(1 0 0 1 32.2341 58.2004)" class="st5 st6 st7">Paul</text>
			<text transform="matrix(1 0 0 1 18.6422 59.7365)" class="st5 st6 st8">&lt;</text>
			<path class="st5" d="M119.5,48.9c0.1,0,0.1-0.1,0.2-0.1c0.5-0.2,1-0.2,1.5-0.3c0.7-0.2,1.9,2.9,1.1,3.1c-0.3,0.1-1.3,0.2-1.5,0.4
				c-0.2,0.2-0.1,0.6,0.1,0.8c0.6,0.7,1.4,1.5,2.1,2.1l0,0c0,0,0,0,0.1,0.1c0,0,0,0,0.1,0.1l0,0c0.7,0.7,1.4,1.5,2.1,2.1
				c0.3,0.2,0.7,0.3,0.8,0.1c0.2-0.3,0.3-1.2,0.4-1.5c0.3-0.8,3.3,0.5,3.1,1.1c-0.1,0.5-0.1,1.1-0.3,1.5c0,0.1-0.1,0.1-0.1,0.2
				c-1.1,1.7-3.7,1.9-5.7,0.3c-0.8-0.6-1.5-1.3-2.2-2l0,0c0,0,0,0-0.1-0.1c0,0,0,0-0.1-0.1l0,0c-0.7-0.7-1.4-1.4-2-2.2
				C117.5,52.6,117.8,50,119.5,48.9z"/>
			<text transform="matrix(1 0 0 1 23.8693 183.3577)" class="st9 st6 st10">655728693</text>
			<circle class="st2" cx="73" cy="115.3" r="39.7"/>
			<path class="st1" d="M41.7,116.4c0.6,16.8,14.4,30.3,31.3,30.3s30.8-13.5,31.3-30.3H41.7z"/>
		</g>
	</g>
</g>
</svg>
