<?xml version="1.0" encoding="utf-8"?>
<!-- Generator: Adobe Illustrator 21.0.0, SVG Export Plug-In . SVG Version: 6.00 Build 0)  -->
<svg version="1.1" id="Layer_1" xmlns="http://www.w3.org/2000/svg" xmlns:xlink="http://www.w3.org/1999/xlink" x="0px" y="0px"
	 viewBox="0 0 150 300" style="enable-background:new 0 0 150 300;" xml:space="preserve">
<style type="text/css">
	.st0{fill:#1D1D1B;}
	.st1{fill:#ECECEC;}
	.st2{fill:#3C3C3B;}
	.st3{fill:#F5F5F5;}
	.st4{fill:#E20613;}
	.st5{fill:#9C9C9B;}
	.st6{fill:#D9D9D9;}
</style>
<g>
	
		<image style="overflow:visible;opacity:0.3;" width="185" height="333" xlink:href="15113E7F.png"  transform="matrix(1 0 0 1 -5.6303 -4.4032)">
	</image>
	<g>
		<g>
			<g>
				<path class="st0" d="M117.9,5.1H32.1C16.4,5.1,3.7,17.8,3.7,33.5v233.1c0,15.6,12.7,28.3,28.3,28.3h85.9v0
					c15.6,0,28.3-12.7,28.3-28.3V33.5C146.3,17.8,133.6,5.1,117.9,5.1z"/>
				<path class="st1" d="M132.2,42.8h-116c-1.1,0-2,0.9-2,2v209c0,1.1,0.9,2,2,2h116c1.1,0,2-0.9,2-2v-209
					C134.2,43.6,133.3,42.8,132.2,42.8z"/>
				<path class="st2" d="M63.8,32.5h20.7c1.1,0,2-0.9,2-2c0-1.1-0.9-2-2-2H63.8c-1.1,0-2,0.9-2,2C61.8,31.6,62.7,32.5,63.8,32.5z"/>
				<circle class="st2" cx="75" cy="20" r="2.1"/>
				<circle class="st2" cx="56.3" cy="30.5" r="2.1"/>
				<path class="st2" d="M75,280.5c-5.1,0-9.2-4.1-9.2-9.2c0-5.1,4.1-9.2,9.2-9.2c5.1,0,9.2,4.1,9.2,9.2
					C84.2,276.3,80.1,280.5,75,280.5z"/>
			</g>
			<path class="st3" d="M134.2,63.4V44.7c0-1.1-0.9-2-2-2h-116c-1.1,0-2,0.9-2,2v18.7H134.2z"/>
			<path class="st4" d="M75.3,46.7c-3.4,0-5.1,2.4-5.1,4.4c0,1.2,0.5,2.3,1.5,2.7c0.2,0.1,0.3,0,0.4-0.2c0-0.1,0.1-0.4,0.1-0.6
				c0-0.2,0-0.2-0.1-0.4c-0.3-0.3-0.5-0.8-0.5-1.4c0-1.8,1.3-3.4,3.5-3.4c1.9,0,3,1.2,3,2.7c0,2-0.9,3.8-2.3,3.8
				c-0.7,0-1.3-0.6-1.1-1.4c0.2-0.9,0.6-1.9,0.6-2.5c0-0.6-0.3-1.1-1-1.1c-0.8,0-1.4,0.8-1.4,1.8c0,0.7,0.2,1.1,0.2,1.1
				s-0.8,3.3-0.9,3.9c-0.3,1.1,0,2.6,0,2.7c0,0.1,0.1,0.1,0.2,0c0.1-0.1,1-1.2,1.3-2.3c0.1-0.3,0.5-2,0.5-2c0.2,0.5,1,0.9,1.7,0.9
				c2.3,0,3.8-2.1,3.8-4.9C79.8,48.6,78,46.7,75.3,46.7z"/>
			<g>
				<path class="st5" d="M125.2,51.5c1.6,0,3-1.3,3-3c0-1.6-1.3-3-3-3c-1.6,0-3,1.3-3,3C122.2,50.2,123.6,51.5,125.2,51.5z"/>
				<path class="st5" d="M127.6,52h-4.8c-0.8,0-1.5,0.8-1.5,1.7v4.8c0,0.1,0,0.1,0,0.2h7.8c0-0.1,0-0.1,0-0.2v-4.8
					C129.1,52.8,128.4,52,127.6,52z"/>
			</g>
			<path class="st5" d="M34.6,56.5l-5.7-3.2c0.3-0.6,0.4-1.3,0.4-2c0-3.1-2.6-5.7-5.7-5.7c-3.1,0-5.7,2.6-5.7,5.7
				c0,3.1,2.6,5.7,5.7,5.7c1.6,0,3.1-0.7,4.2-1.9l5.8,3.2c0.2,0.1,0.3,0.1,0.5,0.1c0.4,0,0.7-0.2,0.9-0.5
				C35.2,57.4,35.1,56.8,34.6,56.5z M23.5,54.9c-2,0-3.6-1.6-3.6-3.6c0-2,1.6-3.6,3.6-3.6c2,0,3.6,1.6,3.6,3.6
				c0,0.7-0.2,1.3-0.5,1.9C26,54.2,24.8,54.9,23.5,54.9z"/>
			<path class="st6" d="M72,146.4c0,2.3-1.9,4.2-4.2,4.2h-40c-2.3,0-4.2-1.9-4.2-4.2V77.2c0-2.3,1.9-4.2,4.2-4.2h40
				c2.3,0,4.2,1.9,4.2,4.2V146.4z"/>
			<path class="st6" d="M125.8,165c0,2.3-1.9,4.2-4.2,4.2h-40c-2.3,0-4.2-1.9-4.2-4.2V76.9c0-2.3,1.9-4.2,4.2-4.2h40
				c2.3,0,4.2,1.9,4.2,4.2V165z"/>
			<path class="st6" d="M72,247.3c0,2.3-1.9,4.2-4.2,4.2h-40c-2.3,0-4.2-1.9-4.2-4.2v-83.9c0-2.3,1.9-4.2,4.2-4.2h40
				c2.3,0,4.2,1.9,4.2,4.2V247.3z"/>
			<path class="st6" d="M125.8,247.1c0,2.3-1.9,4.2-4.2,4.2h-40c-2.3,0-4.2-1.9-4.2-4.2V182c0-2.3,1.9-4.2,4.2-4.2h40
				c2.3,0,4.2,1.9,4.2,4.2V247.1z"/>
			<path class="st3" d="M23.6,136.8v9.7c0,2.3,1.9,4.2,4.2,4.2h40c2.3,0,4.2-1.9,4.2-4.2v-9.7H23.6z"/>
			<path class="st6" d="M125.8,165c0,2.3-1.9,4.2-4.2,4.2h-40c-2.3,0-4.2-1.9-4.2-4.2V76.9c0-2.3,1.9-4.2,4.2-4.2h40
				c2.3,0,4.2,1.9,4.2,4.2V165z"/>
			<path class="st3" d="M77.5,154.8V165c0,2.3,1.9,4.2,4.2,4.2h40c2.3,0,4.2-1.9,4.2-4.2v-10.2H77.5z"/>
			<path class="st6" d="M72,247.3c0,2.3-1.9,4.2-4.2,4.2h-40c-2.3,0-4.2-1.9-4.2-4.2v-83.9c0-2.3,1.9-4.2,4.2-4.2h40
				c2.3,0,4.2,1.9,4.2,4.2V247.3z"/>
			<path class="st3" d="M23.6,238.2v9.1c0,2.3,1.9,4.2,4.2,4.2h40c2.3,0,4.2-1.9,4.2-4.2v-9.1H23.6z"/>
			<path class="st6" d="M125.8,247.1c0,2.3-1.9,4.2-4.2,4.2h-40c-2.3,0-4.2-1.9-4.2-4.2V182c0-2.3,1.9-4.2,4.2-4.2h40
				c2.3,0,4.2,1.9,4.2,4.2V247.1z"/>
			<path class="st3" d="M77.5,238.2v8.9c0,2.3,1.9,4.2,4.2,4.2h40c2.3,0,4.2-1.9,4.2-4.2v-8.9H77.5z"/>
		</g>
	</g>
</g>
</svg>
