<?xml version="1.0" encoding="utf-8"?>
<!-- Generator: Adobe Illustrator 21.0.0, SVG Export Plug-In . SVG Version: 6.00 Build 0)  -->
<svg version="1.1" id="Layer_1" xmlns="http://www.w3.org/2000/svg" xmlns:xlink="http://www.w3.org/1999/xlink" x="0px" y="0px"
	 viewBox="0 0 150 300" style="enable-background:new 0 0 150 300;" xml:space="preserve">
<style type="text/css">
	.st0{fill:#1D1D1B;}
	.st1{fill:#706F6F;}
	.st2{fill:#F8B133;}
	.st3{fill:#3C3C3B;}
	.st4{fill:#F5F5F5;}
	.st5{font-family:'Arimo-Bold';}
	.st6{font-size:14.6377px;}
</style>
<g>
	
		<image style="overflow:visible;opacity:0.3;" width="185" height="333" xlink:href="8A275D12.png"  transform="matrix(1 0 0 1 -8 -3)">
	</image>
	<g>
		<g>
			<path class="st0" d="M115.6,6.5H29.7C14.1,6.5,1.4,19.2,1.4,34.9v233.1c0,15.6,12.7,28.3,28.3,28.3h85.9v0
				c15.6,0,28.3-12.7,28.3-28.3V34.9C143.9,19.2,131.2,6.5,115.6,6.5z"/>
			<path class="st1" d="M129.9,44.1h-116c-1.1,0-2,0.9-2,2v209c0,1.1,0.9,2,2,2h116c1.1,0,2-0.9,2-2v-209
				C131.9,45,131,44.1,129.9,44.1z"/>
			<path class="st2" d="M11.9,70.7v184.4c0,1.1,0.9,2,2,2h116c1.1,0,2-0.9,2-2V70.7H11.9z"/>
			<path class="st3" d="M61.4,33.9h20.7c1.1,0,2-0.9,2-2s-0.9-2-2-2H61.4c-1.1,0-2,0.9-2,2S60.3,33.9,61.4,33.9z"/>
			<circle class="st3" cx="72.7" cy="21.4" r="2.1"/>
			<circle class="st3" cx="54" cy="31.9" r="2.1"/>
			<path class="st3" d="M72.7,281.8c-5.1,0-9.2-4.1-9.2-9.2c0-5.1,4.1-9.2,9.2-9.2c5.1,0,9.2,4.1,9.2,9.2
				C81.9,277.7,77.7,281.8,72.7,281.8z"/>
			<g>
				<path class="st4" d="M53.7,116.2v-0.4h1v-3.2l-0.9,0.7v-0.5l1-0.7h0.5v3.7h1v0.4H53.7z"/>
			</g>
			<g>
				<path class="st4" d="M69.3,116.2v-0.4c0.1-0.2,0.2-0.4,0.4-0.6c0.1-0.2,0.3-0.3,0.5-0.5c0.2-0.1,0.3-0.3,0.5-0.4
					c0.2-0.1,0.3-0.2,0.4-0.4c0.1-0.1,0.2-0.2,0.3-0.4c0.1-0.1,0.1-0.3,0.1-0.4c0-0.2-0.1-0.4-0.2-0.5c-0.1-0.1-0.3-0.2-0.6-0.2
					c-0.2,0-0.4,0.1-0.6,0.2c-0.1,0.1-0.2,0.3-0.3,0.5l-0.5,0c0-0.3,0.2-0.6,0.4-0.8c0.2-0.2,0.5-0.3,0.9-0.3c0.4,0,0.7,0.1,1,0.3
					c0.2,0.2,0.3,0.5,0.3,0.8c0,0.2,0,0.3-0.1,0.5c-0.1,0.2-0.2,0.3-0.3,0.5c-0.1,0.2-0.4,0.4-0.8,0.7c-0.2,0.2-0.4,0.3-0.5,0.5
					c-0.1,0.1-0.2,0.3-0.3,0.4H72v0.4H69.3z"/>
			</g>
			<g>
				<path class="st4" d="M88.6,115c0,0.4-0.1,0.7-0.4,0.9c-0.2,0.2-0.6,0.3-1,0.3c-0.4,0-0.7-0.1-1-0.3c-0.2-0.2-0.4-0.5-0.4-0.8
					l0.5,0c0.1,0.5,0.4,0.7,0.9,0.7c0.3,0,0.5-0.1,0.6-0.2c0.2-0.1,0.2-0.3,0.2-0.6c0-0.2-0.1-0.4-0.3-0.5c-0.2-0.1-0.4-0.2-0.7-0.2
					h-0.3v-0.5h0.3c0.3,0,0.5-0.1,0.7-0.2c0.2-0.1,0.2-0.3,0.2-0.5c0-0.2-0.1-0.4-0.2-0.5c-0.1-0.1-0.3-0.2-0.6-0.2
					c-0.2,0-0.4,0.1-0.6,0.2c-0.1,0.1-0.2,0.3-0.3,0.5l-0.5,0c0-0.3,0.2-0.6,0.4-0.8c0.2-0.2,0.5-0.3,0.9-0.3c0.4,0,0.7,0.1,1,0.3
					c0.2,0.2,0.3,0.5,0.3,0.8c0,0.3-0.1,0.5-0.2,0.6c-0.1,0.2-0.4,0.3-0.6,0.3v0c0.3,0,0.5,0.1,0.7,0.3
					C88.5,114.6,88.6,114.8,88.6,115z"/>
			</g>
			<g>
				<path class="st4" d="M104,115.2v0.9h-0.5v-0.9h-1.9v-0.4l1.9-2.8h0.6v2.8h0.6v0.4H104z M103.5,112.6c0,0,0,0.1-0.1,0.2
					c-0.1,0.1-0.1,0.2-0.1,0.2l-1.1,1.6l-0.2,0.2l0,0.1h1.5V112.6z"/>
			</g>
			<g>
				<path class="st4" d="M120.4,114.8c0,0.4-0.1,0.8-0.4,1c-0.3,0.2-0.6,0.4-1.1,0.4c-0.4,0-0.7-0.1-0.9-0.3
					c-0.2-0.2-0.4-0.4-0.4-0.7l0.5-0.1c0.1,0.4,0.4,0.6,0.9,0.6c0.3,0,0.5-0.1,0.7-0.3c0.2-0.2,0.2-0.4,0.2-0.7
					c0-0.3-0.1-0.5-0.2-0.6c-0.2-0.2-0.4-0.2-0.7-0.2c-0.1,0-0.3,0-0.4,0.1c-0.1,0-0.2,0.1-0.4,0.2h-0.5l0.1-2.2h2.3v0.4h-1.9
					l-0.1,1.3c0.2-0.2,0.5-0.3,0.8-0.3c0.4,0,0.7,0.1,1,0.4C120.2,114.1,120.4,114.4,120.4,114.8z"/>
			</g>
			<g>
				<path class="st4" d="M24.4,135.9c0,0.4-0.1,0.8-0.4,1c-0.2,0.3-0.6,0.4-1,0.4c-0.5,0-0.8-0.2-1.1-0.5c-0.2-0.3-0.4-0.8-0.4-1.5
					c0-0.7,0.1-1.3,0.4-1.6c0.3-0.4,0.6-0.6,1.1-0.6c0.6,0,1,0.3,1.2,0.8l-0.5,0.1c-0.1-0.3-0.3-0.5-0.7-0.5c-0.3,0-0.5,0.1-0.7,0.4
					c-0.2,0.3-0.2,0.7-0.2,1.2c0.1-0.2,0.2-0.3,0.4-0.4c0.2-0.1,0.4-0.1,0.6-0.1c0.4,0,0.7,0.1,0.9,0.4
					C24.2,135.2,24.4,135.5,24.4,135.9z M23.8,135.9c0-0.3-0.1-0.5-0.2-0.7c-0.1-0.2-0.3-0.2-0.6-0.2c-0.2,0-0.4,0.1-0.6,0.2
					c-0.2,0.1-0.2,0.3-0.2,0.6c0,0.3,0.1,0.6,0.2,0.8c0.2,0.2,0.4,0.3,0.6,0.3c0.3,0,0.5-0.1,0.6-0.3
					C23.7,136.4,23.8,136.2,23.8,135.9z"/>
			</g>
			<g>
				<path class="st4" d="M39.8,133.5c-0.4,0.6-0.7,1.1-0.9,1.5c-0.2,0.4-0.3,0.7-0.4,1.1c-0.1,0.4-0.1,0.7-0.1,1.1h-0.5
					c0-0.5,0.1-1.1,0.3-1.7c0.2-0.6,0.6-1.3,1.1-2h-2.2v-0.4h2.7V133.5z"/>
			</g>
			<g>
				<path class="st4" d="M56.3,136.1c0,0.4-0.1,0.7-0.4,0.9c-0.2,0.2-0.6,0.3-1,0.3c-0.4,0-0.8-0.1-1-0.3c-0.2-0.2-0.4-0.5-0.4-0.9
					c0-0.3,0.1-0.5,0.2-0.7c0.2-0.2,0.4-0.3,0.6-0.3v0c-0.2-0.1-0.4-0.2-0.5-0.3c-0.1-0.2-0.2-0.4-0.2-0.6c0-0.3,0.1-0.6,0.4-0.8
					c0.2-0.2,0.5-0.3,0.9-0.3c0.4,0,0.7,0.1,1,0.3c0.2,0.2,0.4,0.4,0.4,0.8c0,0.2-0.1,0.4-0.2,0.6c-0.1,0.2-0.3,0.3-0.5,0.3v0
					c0.3,0,0.5,0.2,0.6,0.3C56.3,135.6,56.3,135.8,56.3,136.1z M55.8,136c0-0.3-0.1-0.4-0.2-0.6c-0.2-0.1-0.4-0.2-0.6-0.2
					c-0.3,0-0.5,0.1-0.6,0.2c-0.2,0.1-0.2,0.3-0.2,0.6c0,0.6,0.3,0.9,0.9,0.9c0.3,0,0.5-0.1,0.6-0.2C55.7,136.6,55.8,136.3,55.8,136
					z M55.7,134.1c0-0.5-0.3-0.7-0.8-0.7c-0.2,0-0.4,0.1-0.6,0.2c-0.1,0.1-0.2,0.3-0.2,0.5c0,0.2,0.1,0.4,0.2,0.5
					c0.1,0.1,0.3,0.2,0.6,0.2c0.2,0,0.4-0.1,0.6-0.2C55.6,134.6,55.7,134.4,55.7,134.1z"/>
			</g>
			<g>
				<path class="st4" d="M72.1,135.1c0,0.7-0.1,1.3-0.4,1.6c-0.3,0.4-0.6,0.6-1.1,0.6c-0.3,0-0.6-0.1-0.8-0.2
					c-0.2-0.1-0.3-0.4-0.4-0.7l0.5-0.1c0.1,0.3,0.3,0.5,0.7,0.5c0.3,0,0.5-0.1,0.7-0.4c0.2-0.3,0.3-0.7,0.3-1.2
					c-0.1,0.2-0.2,0.3-0.4,0.4c-0.2,0.1-0.4,0.2-0.6,0.2c-0.4,0-0.7-0.1-0.9-0.4c-0.2-0.3-0.3-0.6-0.3-1c0-0.4,0.1-0.8,0.4-1
					c0.2-0.2,0.6-0.4,1-0.4c0.5,0,0.8,0.2,1,0.5C71.9,133.9,72.1,134.4,72.1,135.1z M71.5,134.6c0-0.3-0.1-0.6-0.2-0.8
					c-0.2-0.2-0.4-0.3-0.6-0.3c-0.3,0-0.5,0.1-0.6,0.3c-0.1,0.2-0.2,0.4-0.2,0.7c0,0.3,0.1,0.5,0.2,0.7c0.1,0.2,0.3,0.3,0.6,0.3
					c0.2,0,0.3,0,0.4-0.1c0.1-0.1,0.2-0.2,0.3-0.3C71.4,134.9,71.5,134.7,71.5,134.6z"/>
			</g>
			<g>
				<path class="st4" d="M84.4,137.2v-0.4h1v-3.2l-0.9,0.7v-0.5l1-0.7h0.5v3.7h1v0.4H84.4z"/>
				<path class="st4" d="M90.3,135.2c0,0.7-0.1,1.2-0.4,1.6c-0.2,0.4-0.6,0.5-1.1,0.5c-0.5,0-0.8-0.2-1.1-0.5
					c-0.2-0.4-0.4-0.9-0.4-1.6c0-0.7,0.1-1.2,0.3-1.6c0.2-0.4,0.6-0.5,1.1-0.5c0.5,0,0.8,0.2,1.1,0.5
					C90.2,133.9,90.3,134.5,90.3,135.2z M89.8,135.2c0-0.6-0.1-1-0.2-1.3c-0.1-0.3-0.4-0.4-0.7-0.4c-0.3,0-0.6,0.1-0.7,0.4
					c-0.1,0.3-0.2,0.7-0.2,1.3c0,0.6,0.1,1,0.2,1.3c0.1,0.3,0.4,0.4,0.7,0.4c0.3,0,0.5-0.1,0.7-0.4S89.8,135.7,89.8,135.2z"/>
			</g>
			<g>
				<path class="st4" d="M100.2,137.2v-0.4h1v-3.2l-0.9,0.7v-0.5l1-0.7h0.5v3.7h1v0.4H100.2z"/>
				<path class="st4" d="M103.5,137.2v-0.4h1v-3.2l-0.9,0.7v-0.5l1-0.7h0.5v3.7h1v0.4H103.5z"/>
			</g>
			<g>
				<path class="st4" d="M116.1,137.3v-0.4h1v-3.2l-0.9,0.7v-0.5l1-0.7h0.5v3.7h1v0.4H116.1z"/>
				<path class="st4" d="M119.2,137.3v-0.4c0.1-0.2,0.2-0.4,0.4-0.6c0.1-0.2,0.3-0.3,0.5-0.5c0.2-0.1,0.3-0.3,0.5-0.4
					c0.2-0.1,0.3-0.2,0.4-0.4c0.1-0.1,0.2-0.2,0.3-0.4c0.1-0.1,0.1-0.3,0.1-0.4c0-0.2-0.1-0.4-0.2-0.5c-0.1-0.1-0.3-0.2-0.6-0.2
					c-0.2,0-0.4,0.1-0.6,0.2c-0.1,0.1-0.2,0.3-0.3,0.5l-0.5,0c0-0.3,0.2-0.6,0.4-0.8c0.2-0.2,0.5-0.3,0.9-0.3c0.4,0,0.7,0.1,1,0.3
					c0.2,0.2,0.3,0.5,0.3,0.8c0,0.2,0,0.3-0.1,0.5c-0.1,0.2-0.2,0.3-0.3,0.5c-0.1,0.2-0.4,0.4-0.8,0.7c-0.2,0.2-0.4,0.3-0.5,0.5
					c-0.1,0.1-0.2,0.3-0.3,0.4h2.1v0.4H119.2z"/>
			</g>
			<g>
				<path class="st4" d="M20.1,158.4v-0.4h1v-3.2l-0.9,0.7v-0.5l1-0.7h0.5v3.7h1v0.4H20.1z"/>
				<path class="st4" d="M26,157.3c0,0.4-0.1,0.7-0.4,0.9c-0.2,0.2-0.6,0.3-1,0.3c-0.4,0-0.7-0.1-1-0.3c-0.2-0.2-0.4-0.5-0.4-0.8
					l0.5,0c0.1,0.5,0.4,0.7,0.9,0.7c0.3,0,0.5-0.1,0.6-0.2c0.2-0.1,0.2-0.3,0.2-0.6c0-0.2-0.1-0.4-0.3-0.5c-0.2-0.1-0.4-0.2-0.7-0.2
					h-0.3v-0.5h0.3c0.3,0,0.5-0.1,0.7-0.2c0.2-0.1,0.2-0.3,0.2-0.5c0-0.2-0.1-0.4-0.2-0.5c-0.1-0.1-0.3-0.2-0.6-0.2
					c-0.2,0-0.4,0.1-0.6,0.2c-0.1,0.1-0.2,0.3-0.2,0.5l-0.5,0c0-0.3,0.2-0.6,0.4-0.8c0.2-0.2,0.5-0.3,0.9-0.3c0.4,0,0.7,0.1,1,0.3
					c0.2,0.2,0.3,0.5,0.3,0.8c0,0.3-0.1,0.5-0.2,0.6c-0.1,0.2-0.4,0.3-0.6,0.3v0c0.3,0,0.5,0.1,0.7,0.3C25.9,156.8,26,157,26,157.3z
					"/>
			</g>
			<g>
				<path class="st4" d="M35.6,158.4v-0.4h1v-3.2l-0.9,0.7v-0.5l1-0.7h0.5v3.7h1v0.4H35.6z"/>
				<path class="st4" d="M41,157.5v0.9h-0.5v-0.9h-1.9v-0.4l1.9-2.8H41v2.8h0.6v0.4H41z M40.5,154.9c0,0,0,0.1-0.1,0.2
					c-0.1,0.1-0.1,0.2-0.1,0.2l-1.1,1.6l-0.2,0.2l0,0.1h1.5V154.9z"/>
			</g>
			<g>
				<path class="st4" d="M52.1,158.4v-0.4h1v-3.2l-0.9,0.7v-0.5l1-0.7h0.5v3.7h1v0.4H52.1z"/>
				<path class="st4" d="M58,157c0,0.4-0.1,0.8-0.4,1c-0.3,0.2-0.6,0.4-1.1,0.4c-0.4,0-0.7-0.1-0.9-0.3c-0.2-0.2-0.4-0.4-0.4-0.7
					l0.5-0.1c0.1,0.4,0.4,0.6,0.9,0.6c0.3,0,0.5-0.1,0.7-0.3c0.2-0.2,0.2-0.4,0.2-0.7c0-0.3-0.1-0.5-0.2-0.6
					c-0.2-0.2-0.4-0.2-0.6-0.2c-0.1,0-0.3,0-0.4,0.1c-0.1,0-0.2,0.1-0.4,0.2h-0.5l0.1-2.2h2.3v0.4h-1.9l-0.1,1.3
					c0.2-0.2,0.5-0.3,0.9-0.3c0.4,0,0.7,0.1,1,0.4C57.9,156.3,58,156.6,58,157z"/>
			</g>
			<g>
				<path class="st4" d="M67.8,158.4v-0.4h1v-3.2l-0.9,0.7v-0.5l1-0.7h0.5v3.7h1v0.4H67.8z"/>
				<path class="st4" d="M73.7,157c0,0.4-0.1,0.8-0.4,1c-0.2,0.3-0.6,0.4-1,0.4c-0.5,0-0.8-0.2-1.1-0.5c-0.2-0.3-0.4-0.8-0.4-1.5
					c0-0.7,0.1-1.3,0.4-1.6c0.3-0.4,0.6-0.6,1.1-0.6c0.6,0,1,0.3,1.2,0.8l-0.5,0.1c-0.1-0.3-0.3-0.5-0.7-0.5c-0.3,0-0.5,0.1-0.7,0.4
					c-0.2,0.3-0.2,0.7-0.2,1.2c0.1-0.2,0.2-0.3,0.4-0.4c0.2-0.1,0.4-0.1,0.6-0.1c0.4,0,0.7,0.1,0.9,0.4
					C73.6,156.3,73.7,156.6,73.7,157z M73.2,157.1c0-0.3-0.1-0.5-0.2-0.7c-0.1-0.2-0.3-0.2-0.6-0.2c-0.2,0-0.4,0.1-0.6,0.2
					c-0.2,0.1-0.2,0.3-0.2,0.6c0,0.3,0.1,0.6,0.2,0.8c0.2,0.2,0.4,0.3,0.6,0.3c0.3,0,0.5-0.1,0.6-0.3
					C73.1,157.6,73.2,157.4,73.2,157.1z"/>
			</g>
			<g>
				<path class="st4" d="M84.4,158.4v-0.4h1v-3.2l-0.9,0.7v-0.5l1-0.7h0.5v3.7h1v0.4H84.4z"/>
				<path class="st4" d="M90.3,154.7c-0.4,0.6-0.7,1.1-0.9,1.5c-0.2,0.4-0.3,0.7-0.4,1.1c-0.1,0.4-0.1,0.7-0.1,1.1h-0.5
					c0-0.5,0.1-1.1,0.3-1.7c0.2-0.6,0.6-1.3,1.1-2h-2.2v-0.4h2.7V154.7z"/>
			</g>
			<g>
				<path class="st4" d="M100.2,158.4v-0.4h1v-3.2l-0.9,0.7v-0.5l1-0.7h0.5v3.7h1v0.4H100.2z"/>
				<path class="st4" d="M106.1,157.2c0,0.4-0.1,0.7-0.4,0.9c-0.2,0.2-0.6,0.3-1,0.3c-0.4,0-0.8-0.1-1-0.3c-0.2-0.2-0.4-0.5-0.4-0.9
					c0-0.3,0.1-0.5,0.2-0.7c0.2-0.2,0.4-0.3,0.6-0.3v0c-0.2-0.1-0.4-0.2-0.5-0.3c-0.1-0.2-0.2-0.4-0.2-0.6c0-0.3,0.1-0.6,0.4-0.8
					c0.2-0.2,0.5-0.3,0.9-0.3c0.4,0,0.7,0.1,1,0.3c0.2,0.2,0.4,0.4,0.4,0.8c0,0.2-0.1,0.4-0.2,0.6c-0.1,0.2-0.3,0.3-0.5,0.3v0
					c0.3,0,0.5,0.2,0.6,0.3C106.1,156.7,106.1,157,106.1,157.2z M105.6,157.2c0-0.3-0.1-0.4-0.2-0.6c-0.2-0.1-0.4-0.2-0.6-0.2
					c-0.3,0-0.5,0.1-0.6,0.2c-0.2,0.1-0.2,0.3-0.2,0.6c0,0.6,0.3,0.9,0.9,0.9c0.3,0,0.5-0.1,0.6-0.2
					C105.5,157.7,105.6,157.5,105.6,157.2z M105.5,155.3c0-0.5-0.3-0.7-0.8-0.7c-0.2,0-0.4,0.1-0.6,0.2c-0.1,0.1-0.2,0.3-0.2,0.5
					c0,0.2,0.1,0.4,0.2,0.5c0.1,0.1,0.3,0.2,0.6,0.2c0.2,0,0.4-0.1,0.6-0.2C105.4,155.7,105.5,155.6,105.5,155.3z"/>
			</g>
			<g>
				<path class="st4" d="M116.1,158.4v-0.4h1v-3.2l-0.9,0.7v-0.5l1-0.7h0.5v3.7h1v0.4H116.1z"/>
				<path class="st4" d="M122,156.3c0,0.7-0.1,1.3-0.4,1.6c-0.3,0.4-0.6,0.6-1.1,0.6c-0.3,0-0.6-0.1-0.8-0.2
					c-0.2-0.1-0.3-0.4-0.4-0.7l0.5-0.1c0.1,0.3,0.3,0.5,0.7,0.5c0.3,0,0.5-0.1,0.7-0.4c0.2-0.3,0.3-0.7,0.3-1.2
					c-0.1,0.2-0.2,0.3-0.4,0.4c-0.2,0.1-0.4,0.2-0.6,0.2c-0.4,0-0.7-0.1-0.9-0.4c-0.2-0.3-0.3-0.6-0.3-1c0-0.4,0.1-0.8,0.4-1
					c0.2-0.2,0.6-0.4,1-0.4c0.5,0,0.8,0.2,1,0.5C121.9,155.1,122,155.6,122,156.3z M121.4,155.7c0-0.3-0.1-0.6-0.2-0.8
					c-0.2-0.2-0.4-0.3-0.6-0.3c-0.3,0-0.5,0.1-0.6,0.3c-0.1,0.2-0.2,0.4-0.2,0.7c0,0.3,0.1,0.5,0.2,0.7c0.1,0.2,0.3,0.3,0.6,0.3
					c0.2,0,0.3,0,0.4-0.1c0.1-0.1,0.2-0.2,0.3-0.3C121.4,156,121.4,155.9,121.4,155.7z"/>
			</g>
			<g>
				<path class="st4" d="M19.9,179.5v-0.4c0.1-0.2,0.2-0.4,0.4-0.6s0.3-0.3,0.5-0.5c0.2-0.1,0.3-0.3,0.5-0.4
					c0.2-0.1,0.3-0.2,0.4-0.4c0.1-0.1,0.2-0.2,0.3-0.4c0.1-0.1,0.1-0.3,0.1-0.4c0-0.2-0.1-0.4-0.2-0.5c-0.1-0.1-0.3-0.2-0.6-0.2
					c-0.2,0-0.4,0.1-0.6,0.2c-0.1,0.1-0.2,0.3-0.3,0.5l-0.5,0c0-0.3,0.2-0.6,0.4-0.8c0.2-0.2,0.5-0.3,0.9-0.3c0.4,0,0.7,0.1,1,0.3
					c0.2,0.2,0.3,0.5,0.3,0.8c0,0.2,0,0.3-0.1,0.5c-0.1,0.2-0.2,0.3-0.3,0.5c-0.1,0.2-0.4,0.4-0.8,0.7c-0.2,0.2-0.4,0.3-0.5,0.5
					c-0.1,0.1-0.2,0.3-0.3,0.4h2.1v0.4H19.9z"/>
				<path class="st4" d="M26,177.5c0,0.7-0.1,1.2-0.4,1.6c-0.2,0.4-0.6,0.5-1.1,0.5c-0.5,0-0.8-0.2-1.1-0.5
					c-0.2-0.4-0.4-0.9-0.4-1.6c0-0.7,0.1-1.2,0.3-1.6c0.2-0.4,0.6-0.5,1.1-0.5c0.5,0,0.8,0.2,1.1,0.5C25.9,176.2,26,176.8,26,177.5z
					 M25.5,177.5c0-0.6-0.1-1-0.2-1.3c-0.1-0.3-0.4-0.4-0.7-0.4c-0.3,0-0.6,0.1-0.7,0.4c-0.1,0.3-0.2,0.7-0.2,1.3
					c0,0.6,0.1,1,0.2,1.3c0.1,0.3,0.4,0.4,0.7,0.4c0.3,0,0.5-0.1,0.7-0.4C25.4,178.5,25.5,178,25.5,177.5z"/>
			</g>
			<g>
				<path class="st4" d="M35.4,179.6v-0.4c0.1-0.2,0.2-0.4,0.4-0.6c0.1-0.2,0.3-0.3,0.5-0.5c0.2-0.1,0.3-0.3,0.5-0.4
					c0.2-0.1,0.3-0.2,0.4-0.4c0.1-0.1,0.2-0.2,0.3-0.4c0.1-0.1,0.1-0.3,0.1-0.4c0-0.2-0.1-0.4-0.2-0.5c-0.1-0.1-0.3-0.2-0.6-0.2
					c-0.2,0-0.4,0.1-0.6,0.2c-0.1,0.1-0.2,0.3-0.3,0.5l-0.5,0c0-0.3,0.2-0.6,0.4-0.8c0.2-0.2,0.5-0.3,0.9-0.3c0.4,0,0.7,0.1,1,0.3
					c0.2,0.2,0.3,0.5,0.3,0.8c0,0.2,0,0.3-0.1,0.5c-0.1,0.2-0.2,0.3-0.3,0.5c-0.1,0.2-0.4,0.4-0.8,0.7c-0.2,0.2-0.4,0.3-0.5,0.5
					c-0.1,0.1-0.2,0.3-0.3,0.4h2.1v0.4H35.4z"/>
				<path class="st4" d="M38.9,179.6v-0.4h1v-3.2l-0.9,0.7v-0.5l1-0.7h0.5v3.7h1v0.4H38.9z"/>
			</g>
			<g>
				<path class="st4" d="M51.9,179.6v-0.4c0.1-0.2,0.2-0.4,0.4-0.6c0.1-0.2,0.3-0.3,0.5-0.5c0.2-0.1,0.3-0.3,0.5-0.4
					c0.2-0.1,0.3-0.2,0.4-0.4c0.1-0.1,0.2-0.2,0.3-0.4c0.1-0.1,0.1-0.3,0.1-0.4c0-0.2-0.1-0.4-0.2-0.5c-0.1-0.1-0.3-0.2-0.6-0.2
					c-0.2,0-0.4,0.1-0.6,0.2c-0.1,0.1-0.2,0.3-0.3,0.5l-0.5,0c0-0.3,0.2-0.6,0.4-0.8c0.2-0.2,0.5-0.3,0.9-0.3c0.4,0,0.7,0.1,1,0.3
					c0.2,0.2,0.3,0.5,0.3,0.8c0,0.2,0,0.3-0.1,0.5c-0.1,0.2-0.2,0.3-0.3,0.5c-0.1,0.2-0.4,0.4-0.8,0.7c-0.2,0.2-0.4,0.3-0.5,0.5
					c-0.1,0.1-0.2,0.3-0.3,0.4h2.1v0.4H51.9z"/>
				<path class="st4" d="M55.2,179.6v-0.4c0.1-0.2,0.2-0.4,0.4-0.6c0.1-0.2,0.3-0.3,0.5-0.5c0.2-0.1,0.3-0.3,0.5-0.4
					c0.2-0.1,0.3-0.2,0.4-0.4c0.1-0.1,0.2-0.2,0.3-0.4c0.1-0.1,0.1-0.3,0.1-0.4c0-0.2-0.1-0.4-0.2-0.5c-0.1-0.1-0.3-0.2-0.6-0.2
					c-0.2,0-0.4,0.1-0.6,0.2c-0.1,0.1-0.2,0.3-0.3,0.5l-0.5,0c0-0.3,0.2-0.6,0.4-0.8c0.2-0.2,0.5-0.3,0.9-0.3c0.4,0,0.7,0.1,1,0.3
					c0.2,0.2,0.3,0.5,0.3,0.8c0,0.2,0,0.3-0.1,0.5c-0.1,0.2-0.2,0.3-0.3,0.5c-0.1,0.2-0.4,0.4-0.8,0.7c-0.2,0.2-0.4,0.3-0.5,0.5
					c-0.1,0.1-0.2,0.3-0.3,0.4H58v0.4H55.2z"/>
			</g>
			<g>
				<path class="st4" d="M67.6,179.5v-0.4c0.1-0.2,0.2-0.4,0.4-0.6c0.1-0.2,0.3-0.3,0.5-0.5c0.2-0.1,0.3-0.3,0.5-0.4
					c0.2-0.1,0.3-0.2,0.4-0.4c0.1-0.1,0.2-0.2,0.3-0.4c0.1-0.1,0.1-0.3,0.1-0.4c0-0.2-0.1-0.4-0.2-0.5c-0.1-0.1-0.3-0.2-0.6-0.2
					c-0.2,0-0.4,0.1-0.6,0.2c-0.1,0.1-0.2,0.3-0.3,0.5l-0.5,0c0-0.3,0.2-0.6,0.4-0.8c0.2-0.2,0.5-0.3,0.9-0.3c0.4,0,0.7,0.1,1,0.3
					c0.2,0.2,0.3,0.5,0.3,0.8c0,0.2,0,0.3-0.1,0.5c-0.1,0.2-0.2,0.3-0.3,0.5c-0.1,0.2-0.4,0.4-0.8,0.7c-0.2,0.2-0.4,0.3-0.5,0.5
					c-0.1,0.1-0.2,0.3-0.3,0.4h2.1v0.4H67.6z"/>
				<path class="st4" d="M73.7,178.4c0,0.4-0.1,0.7-0.4,0.9s-0.6,0.3-1,0.3c-0.4,0-0.7-0.1-1-0.3c-0.2-0.2-0.4-0.5-0.4-0.8l0.5,0
					c0.1,0.5,0.4,0.7,0.9,0.7c0.3,0,0.5-0.1,0.6-0.2c0.2-0.1,0.2-0.3,0.2-0.6c0-0.2-0.1-0.4-0.3-0.5c-0.2-0.1-0.4-0.2-0.7-0.2h-0.3
					v-0.5h0.3c0.3,0,0.5-0.1,0.7-0.2c0.2-0.1,0.2-0.3,0.2-0.5c0-0.2-0.1-0.4-0.2-0.5c-0.1-0.1-0.3-0.2-0.6-0.2
					c-0.2,0-0.4,0.1-0.6,0.2c-0.1,0.1-0.2,0.3-0.3,0.5l-0.5,0c0-0.3,0.2-0.6,0.4-0.8c0.2-0.2,0.5-0.3,0.9-0.3c0.4,0,0.7,0.1,1,0.3
					c0.2,0.2,0.3,0.5,0.3,0.8c0,0.3-0.1,0.5-0.2,0.6c-0.1,0.2-0.4,0.3-0.6,0.3v0c0.3,0,0.5,0.1,0.7,0.3
					C73.7,177.9,73.7,178.1,73.7,178.4z"/>
			</g>
			<g>
				<path class="st4" d="M84.2,179.6v-0.4c0.1-0.2,0.2-0.4,0.4-0.6c0.1-0.2,0.3-0.3,0.5-0.5c0.2-0.1,0.3-0.3,0.5-0.4
					c0.2-0.1,0.3-0.2,0.4-0.4c0.1-0.1,0.2-0.2,0.3-0.4c0.1-0.1,0.1-0.3,0.1-0.4c0-0.2-0.1-0.4-0.2-0.5c-0.1-0.1-0.3-0.2-0.6-0.2
					c-0.2,0-0.4,0.1-0.6,0.2c-0.1,0.1-0.2,0.3-0.3,0.5l-0.5,0c0-0.3,0.2-0.6,0.4-0.8c0.2-0.2,0.5-0.3,0.9-0.3c0.4,0,0.7,0.1,1,0.3
					c0.2,0.2,0.3,0.5,0.3,0.8c0,0.2,0,0.3-0.1,0.5c-0.1,0.2-0.2,0.3-0.3,0.5c-0.1,0.2-0.4,0.4-0.8,0.7c-0.2,0.2-0.4,0.3-0.5,0.5
					c-0.1,0.1-0.2,0.3-0.3,0.4h2.1v0.4H84.2z"/>
				<path class="st4" d="M89.8,178.6v0.9h-0.5v-0.9h-1.9v-0.4l1.9-2.8h0.6v2.8h0.6v0.4H89.8z M89.3,176c0,0,0,0.1-0.1,0.2
					c-0.1,0.1-0.1,0.2-0.1,0.2l-1.1,1.6l-0.2,0.2l0,0.1h1.5V176z"/>
			</g>
			<g>
				<path class="st4" d="M100.1,179.5v-0.4c0.1-0.2,0.2-0.4,0.4-0.6c0.1-0.2,0.3-0.3,0.5-0.5c0.2-0.1,0.3-0.3,0.5-0.4
					c0.2-0.1,0.3-0.2,0.4-0.4c0.1-0.1,0.2-0.2,0.3-0.4c0.1-0.1,0.1-0.3,0.1-0.4c0-0.2-0.1-0.4-0.2-0.5c-0.1-0.1-0.3-0.2-0.6-0.2
					c-0.2,0-0.4,0.1-0.6,0.2c-0.1,0.1-0.2,0.3-0.3,0.5l-0.5,0c0-0.3,0.2-0.6,0.4-0.8c0.2-0.2,0.5-0.3,0.9-0.3c0.4,0,0.7,0.1,1,0.3
					c0.2,0.2,0.3,0.5,0.3,0.8c0,0.2,0,0.3-0.1,0.5c-0.1,0.2-0.2,0.3-0.3,0.5c-0.1,0.2-0.4,0.4-0.8,0.7c-0.2,0.2-0.4,0.3-0.5,0.5
					c-0.1,0.1-0.2,0.3-0.3,0.4h2.1v0.4H100.1z"/>
				<path class="st4" d="M106.2,178.2c0,0.4-0.1,0.8-0.4,1c-0.3,0.2-0.6,0.4-1.1,0.4c-0.4,0-0.7-0.1-0.9-0.3
					c-0.2-0.2-0.4-0.4-0.4-0.7l0.5-0.1c0.1,0.4,0.4,0.6,0.9,0.6c0.3,0,0.5-0.1,0.7-0.3c0.2-0.2,0.2-0.4,0.2-0.7
					c0-0.3-0.1-0.5-0.2-0.6c-0.2-0.2-0.4-0.2-0.7-0.2c-0.1,0-0.3,0-0.4,0.1c-0.1,0-0.2,0.1-0.4,0.2h-0.5l0.1-2.2h2.3v0.4h-1.9
					l-0.1,1.3c0.2-0.2,0.5-0.3,0.8-0.3c0.4,0,0.7,0.1,1,0.4C106,177.5,106.2,177.8,106.2,178.2z"/>
			</g>
			<g>
				<path class="st4" d="M115.9,179.5v-0.4c0.1-0.2,0.2-0.4,0.4-0.6c0.1-0.2,0.3-0.3,0.5-0.5c0.2-0.1,0.3-0.3,0.5-0.4
					c0.2-0.1,0.3-0.2,0.4-0.4c0.1-0.1,0.2-0.2,0.3-0.4c0.1-0.1,0.1-0.3,0.1-0.4c0-0.2-0.1-0.4-0.2-0.5c-0.1-0.1-0.3-0.2-0.6-0.2
					c-0.2,0-0.4,0.1-0.6,0.2c-0.1,0.1-0.2,0.3-0.3,0.5l-0.5,0c0-0.3,0.2-0.6,0.4-0.8c0.2-0.2,0.5-0.3,0.9-0.3c0.4,0,0.7,0.1,1,0.3
					c0.2,0.2,0.3,0.5,0.3,0.8c0,0.2,0,0.3-0.1,0.5c-0.1,0.2-0.2,0.3-0.3,0.5c-0.1,0.2-0.4,0.4-0.8,0.7c-0.2,0.2-0.4,0.3-0.5,0.5
					c-0.1,0.1-0.2,0.3-0.3,0.4h2.1v0.4H115.9z"/>
				<path class="st4" d="M122,178.2c0,0.4-0.1,0.8-0.4,1c-0.2,0.3-0.6,0.4-1,0.4c-0.5,0-0.8-0.2-1.1-0.5c-0.2-0.3-0.4-0.8-0.4-1.5
					c0-0.7,0.1-1.3,0.4-1.6c0.3-0.4,0.6-0.6,1.1-0.6c0.6,0,1,0.3,1.2,0.8l-0.5,0.1c-0.1-0.3-0.3-0.5-0.7-0.5c-0.3,0-0.5,0.1-0.7,0.4
					c-0.2,0.3-0.2,0.7-0.2,1.2c0.1-0.2,0.2-0.3,0.4-0.4c0.2-0.1,0.4-0.1,0.6-0.1c0.4,0,0.7,0.1,0.9,0.4
					C121.9,177.5,122,177.8,122,178.2z M121.5,178.2c0-0.3-0.1-0.5-0.2-0.7c-0.1-0.2-0.3-0.2-0.6-0.2c-0.2,0-0.4,0.1-0.6,0.2
					c-0.2,0.1-0.2,0.3-0.2,0.6c0,0.3,0.1,0.6,0.2,0.8c0.2,0.2,0.4,0.3,0.6,0.3c0.3,0,0.5-0.1,0.6-0.3
					C121.4,178.7,121.5,178.5,121.5,178.2z"/>
			</g>
			<g>
				<path class="st4" d="M19.9,200.7v-0.4c0.1-0.2,0.2-0.4,0.4-0.6s0.3-0.3,0.5-0.5c0.2-0.1,0.3-0.3,0.5-0.4
					c0.2-0.1,0.3-0.2,0.4-0.4c0.1-0.1,0.2-0.2,0.3-0.4c0.1-0.1,0.1-0.3,0.1-0.4c0-0.2-0.1-0.4-0.2-0.5c-0.1-0.1-0.3-0.2-0.6-0.2
					c-0.2,0-0.4,0.1-0.6,0.2c-0.1,0.1-0.2,0.3-0.3,0.5l-0.5,0c0-0.3,0.2-0.6,0.4-0.8c0.2-0.2,0.5-0.3,0.9-0.3c0.4,0,0.7,0.1,1,0.3
					c0.2,0.2,0.3,0.5,0.3,0.8c0,0.2,0,0.3-0.1,0.5c-0.1,0.2-0.2,0.3-0.3,0.5c-0.1,0.2-0.4,0.4-0.8,0.7c-0.2,0.2-0.4,0.3-0.5,0.5
					c-0.1,0.1-0.2,0.3-0.3,0.4h2.1v0.4H19.9z"/>
				<path class="st4" d="M26,197c-0.4,0.6-0.7,1.1-0.9,1.5c-0.2,0.4-0.3,0.7-0.4,1.1c-0.1,0.4-0.1,0.7-0.1,1.1H24
					c0-0.5,0.1-1.1,0.3-1.7c0.2-0.6,0.6-1.3,1.1-2h-2.2v-0.4H26V197z"/>
			</g>
			<g>
				<path class="st4" d="M35.4,200.6v-0.4c0.1-0.2,0.2-0.4,0.4-0.6c0.1-0.2,0.3-0.3,0.5-0.5c0.2-0.1,0.3-0.3,0.5-0.4
					c0.2-0.1,0.3-0.2,0.4-0.4c0.1-0.1,0.2-0.2,0.3-0.4c0.1-0.1,0.1-0.3,0.1-0.4c0-0.2-0.1-0.4-0.2-0.5c-0.1-0.1-0.3-0.2-0.6-0.2
					c-0.2,0-0.4,0.1-0.6,0.2c-0.1,0.1-0.2,0.3-0.3,0.5l-0.5,0c0-0.3,0.2-0.6,0.4-0.8c0.2-0.2,0.5-0.3,0.9-0.3c0.4,0,0.7,0.1,1,0.3
					c0.2,0.2,0.3,0.5,0.3,0.8c0,0.2,0,0.3-0.1,0.5c-0.1,0.2-0.2,0.3-0.3,0.5c-0.1,0.2-0.4,0.4-0.8,0.7c-0.2,0.2-0.4,0.3-0.5,0.5
					c-0.1,0.1-0.2,0.3-0.3,0.4h2.1v0.4H35.4z"/>
				<path class="st4" d="M41.5,199.5c0,0.4-0.1,0.7-0.4,0.9c-0.2,0.2-0.6,0.3-1,0.3c-0.4,0-0.8-0.1-1-0.3c-0.2-0.2-0.4-0.5-0.4-0.9
					c0-0.3,0.1-0.5,0.2-0.7c0.2-0.2,0.4-0.3,0.6-0.3v0c-0.2-0.1-0.4-0.2-0.5-0.3c-0.1-0.2-0.2-0.4-0.2-0.6c0-0.3,0.1-0.6,0.4-0.8
					c0.2-0.2,0.5-0.3,0.9-0.3c0.4,0,0.7,0.1,1,0.3c0.2,0.2,0.4,0.4,0.4,0.8c0,0.2-0.1,0.4-0.2,0.6c-0.1,0.2-0.3,0.3-0.5,0.3v0
					c0.3,0,0.5,0.2,0.6,0.3C41.5,199,41.5,199.2,41.5,199.5z M41,199.5c0-0.3-0.1-0.4-0.2-0.6c-0.2-0.1-0.4-0.2-0.6-0.2
					c-0.3,0-0.5,0.1-0.6,0.2c-0.1,0.1-0.2,0.3-0.2,0.6c0,0.6,0.3,0.9,0.9,0.9c0.3,0,0.5-0.1,0.6-0.2C40.9,200,41,199.8,41,199.5z
					 M40.9,197.6c0-0.5-0.3-0.7-0.8-0.7c-0.2,0-0.4,0.1-0.6,0.2c-0.1,0.1-0.2,0.3-0.2,0.5c0,0.2,0.1,0.4,0.2,0.5
					c0.1,0.1,0.3,0.2,0.6,0.2c0.2,0,0.4-0.1,0.6-0.2C40.8,198,40.9,197.8,40.9,197.6z"/>
			</g>
			<g>
				<path class="st4" d="M51.9,200.6v-0.4c0.1-0.2,0.2-0.4,0.4-0.6c0.1-0.2,0.3-0.3,0.5-0.5c0.2-0.1,0.3-0.3,0.5-0.4
					c0.2-0.1,0.3-0.2,0.4-0.4c0.1-0.1,0.2-0.2,0.3-0.4c0.1-0.1,0.1-0.3,0.1-0.4c0-0.2-0.1-0.4-0.2-0.5c-0.1-0.1-0.3-0.2-0.6-0.2
					c-0.2,0-0.4,0.1-0.6,0.2c-0.1,0.1-0.2,0.3-0.3,0.5l-0.5,0c0-0.3,0.2-0.6,0.4-0.8c0.2-0.2,0.5-0.3,0.9-0.3c0.4,0,0.7,0.1,1,0.3
					c0.2,0.2,0.3,0.5,0.3,0.8c0,0.2,0,0.3-0.1,0.5c-0.1,0.2-0.2,0.3-0.3,0.5c-0.1,0.2-0.4,0.4-0.8,0.7c-0.2,0.2-0.4,0.3-0.5,0.5
					c-0.1,0.1-0.2,0.3-0.3,0.4h2.1v0.4H51.9z"/>
				<path class="st4" d="M58,198.5c0,0.7-0.1,1.3-0.4,1.6c-0.3,0.4-0.6,0.6-1.1,0.6c-0.3,0-0.6-0.1-0.8-0.2
					c-0.2-0.1-0.3-0.4-0.4-0.7l0.5-0.1c0.1,0.3,0.3,0.5,0.7,0.5c0.3,0,0.5-0.1,0.7-0.4c0.2-0.3,0.3-0.7,0.3-1.2
					c-0.1,0.2-0.2,0.3-0.4,0.4c-0.2,0.1-0.4,0.2-0.6,0.2c-0.4,0-0.7-0.1-0.9-0.4c-0.2-0.3-0.3-0.6-0.3-1c0-0.4,0.1-0.8,0.4-1
					c0.2-0.2,0.6-0.4,1-0.4c0.5,0,0.8,0.2,1,0.5C57.9,197.3,58,197.8,58,198.5z M57.4,198c0-0.3-0.1-0.6-0.2-0.8
					c-0.2-0.2-0.4-0.3-0.6-0.3c-0.3,0-0.5,0.1-0.6,0.3c-0.1,0.2-0.2,0.4-0.2,0.7c0,0.3,0.1,0.5,0.2,0.7c0.1,0.2,0.3,0.3,0.6,0.3
					c0.2,0,0.3,0,0.4-0.1c0.1-0.1,0.2-0.2,0.3-0.3C57.4,198.3,57.4,198.2,57.4,198z"/>
			</g>
			<g>
				<path class="st4" d="M70.4,199.5c0,0.4-0.1,0.7-0.4,0.9s-0.6,0.3-1,0.3c-0.4,0-0.7-0.1-1-0.3c-0.2-0.2-0.4-0.5-0.4-0.8l0.5,0
					c0.1,0.5,0.4,0.7,0.9,0.7c0.3,0,0.5-0.1,0.6-0.2c0.2-0.1,0.2-0.3,0.2-0.6c0-0.2-0.1-0.4-0.3-0.5c-0.2-0.1-0.4-0.2-0.7-0.2h-0.3
					v-0.5h0.3c0.3,0,0.5-0.1,0.7-0.2c0.2-0.1,0.2-0.3,0.2-0.5c0-0.2-0.1-0.4-0.2-0.5c-0.1-0.1-0.3-0.2-0.6-0.2
					c-0.2,0-0.4,0.1-0.6,0.2c-0.1,0.1-0.2,0.3-0.3,0.5l-0.5,0c0-0.3,0.2-0.6,0.4-0.8c0.2-0.2,0.5-0.3,0.9-0.3c0.4,0,0.7,0.1,1,0.3
					c0.2,0.2,0.3,0.5,0.3,0.8c0,0.3-0.1,0.5-0.2,0.6c-0.1,0.2-0.4,0.3-0.6,0.3v0c0.3,0,0.5,0.1,0.7,0.3
					C70.3,199,70.4,199.2,70.4,199.5z"/>
				<path class="st4" d="M73.8,198.6c0,0.7-0.1,1.2-0.4,1.6c-0.2,0.4-0.6,0.5-1.1,0.5c-0.5,0-0.8-0.2-1.1-0.5
					c-0.2-0.4-0.4-0.9-0.4-1.6c0-0.7,0.1-1.2,0.3-1.6c0.2-0.4,0.6-0.5,1.1-0.5c0.5,0,0.8,0.2,1.1,0.5
					C73.7,197.4,73.8,197.9,73.8,198.6z M73.2,198.6c0-0.6-0.1-1-0.2-1.3c-0.1-0.3-0.4-0.4-0.7-0.4c-0.3,0-0.6,0.1-0.7,0.4
					c-0.1,0.3-0.2,0.7-0.2,1.3c0,0.6,0.1,1,0.2,1.3c0.1,0.3,0.4,0.4,0.7,0.4c0.3,0,0.5-0.1,0.7-0.4
					C73.2,199.6,73.2,199.2,73.2,198.6z"/>
			</g>
			<g>
				<path class="st4" d="M60.4,51.2h1.7l2,12h-1.3l-0.3-2.3h-2.2l-0.3,2.3h-1.3L60.4,51.2z M60.4,59.8h1.8l-0.9-6.3h0L60.4,59.8z"/>
				<path class="st4" d="M65.5,51.2h2.4c1.1,0,1.7,0.4,2,1.3c0.2,0.6,0.3,1.2,0.3,1.9c0,0.7,0,1.3-0.1,1.7c-0.1,0.8-0.3,1.4-0.6,1.8
					c-0.3,0.4-0.9,0.6-1.6,0.6h-1v4.7h-1.4V51.2z M68.7,54.6c0-0.8-0.1-1.4-0.2-1.8c-0.1-0.3-0.4-0.5-0.8-0.5h-0.9v5h0.9
					c0.4,0,0.7-0.2,0.8-0.5c0.1-0.4,0.2-1,0.2-2V54.6z"/>
				<path class="st4" d="M71.6,51.2h2.5c0.7,0,1.2,0.1,1.5,0.4c0.3,0.3,0.5,0.8,0.6,1.5c0,0.3,0,0.7,0,1.4c0,0.6-0.1,1.1-0.2,1.6
					c-0.2,0.4-0.4,0.7-0.9,0.8c0.3,0.1,0.5,0.2,0.7,0.5c0.2,0.3,0.3,0.7,0.3,1.3c0.1,0.6,0.1,1.4,0.1,2.6c0,1.1,0,1.8,0.1,2h-1.4
					c-0.1-0.1-0.1-1.5-0.1-4c0-0.9-0.1-1.4-0.3-1.5c-0.2-0.1-0.4-0.2-0.8-0.2l-0.8,0v5.8h-1.4V51.2z M74.8,54.2
					c0-0.9-0.1-1.5-0.2-1.6c-0.2-0.1-0.4-0.2-0.7-0.2H73v4h0.9c0.3,0,0.5-0.1,0.6-0.2c0.1-0.1,0.2-0.3,0.3-0.6
					C74.8,55.3,74.8,54.9,74.8,54.2L74.8,54.2z"/>
				<path class="st4" d="M78.2,51.2h1.4v12h-1.4V51.2z"/>
				<path class="st4" d="M81.6,51.2h1.4v10.8h2.2v1.2h-3.6V51.2z"/>
			</g>
			<g>
				<g>
					<g>
						<path class="st3" d="M23.7,93.1h0.8v5.1h-0.5v-2.1l0-1.9l-0.7,4h-0.5l-0.7-4l0,1.9v2.1h-0.5v-5.1h0.8l0.7,4.2L23.7,93.1z"/>
					</g>
				</g>
				<g>
					<g>
						<path class="st3" d="M37.6,93.1h1.7v0.5h-0.5v4.6h-0.6v-4.6h-0.6V93.1z"/>
					</g>
				</g>
				<g>
					<g>
						<path class="st3" d="M56.2,93.1h0.6l-0.6,5.1h-0.6L55,94.4l-0.6,3.8h-0.6l-0.7-5.1h0.6l0.4,3.9l0.6-3.9h0.5l0.6,3.9L56.2,93.1
							z"/>
					</g>
				</g>
				<g>
					<g>
						<path class="st3" d="M69.8,93.1h1.7v0.5H71v4.6h-0.6v-4.6h-0.6V93.1z"/>
					</g>
				</g>
				<g>
					<g>
						<path class="st3" d="M86.6,93.2h1.5v0.5h-0.9v1.6H88v0.5h-0.9v2.5h-0.6V93.2z"/>
					</g>
				</g>
				<g>
					<g>
						<path class="st3" d="M102.2,94.7c0-0.1-0.1-0.3-0.1-0.4c0-0.4,0.1-0.7,0.2-0.9c0.1-0.2,0.4-0.3,0.8-0.3c0.5,0,0.8,0.2,0.9,0.7
							c0,0.2,0.1,0.5,0.1,0.8v0.3h-0.6v-0.3c0-0.3,0-0.5-0.1-0.7c0-0.1-0.1-0.2-0.1-0.2c0,0-0.1-0.1-0.2-0.1c-0.1,0-0.3,0.1-0.3,0.2
							c-0.1,0.1-0.1,0.3-0.1,0.5c0,0.2,0,0.4,0.1,0.5c0.1,0.1,0.1,0.2,0.2,0.3c0.1,0.1,0.1,0.1,0.1,0.2l0.4,0.4
							c0.4,0.4,0.6,0.9,0.6,1.5c0,0.4-0.1,0.8-0.2,1c-0.1,0.2-0.4,0.4-0.8,0.4c-0.5,0-0.8-0.2-0.9-0.6c-0.1-0.2-0.1-0.5-0.1-0.9
							c0,0,0,0,0,0v-0.5h0.6v0.5c0,0.4,0,0.6,0.1,0.8c0.1,0.1,0.2,0.2,0.3,0.2c0.1,0,0.3,0,0.3-0.1c0.1-0.1,0.1-0.2,0.1-0.3
							c0-0.1,0-0.3,0-0.5c0-0.4-0.2-0.7-0.5-1l-0.3-0.3C102.4,95.2,102.2,94.9,102.2,94.7z"/>
					</g>
				</g>
				<g>
					<g>
						<path class="st3" d="M118,94.8c0-0.1-0.1-0.3-0.1-0.4c0-0.4,0.1-0.7,0.2-0.9c0.1-0.2,0.4-0.3,0.8-0.3c0.5,0,0.8,0.2,0.9,0.7
							c0,0.2,0.1,0.5,0.1,0.8v0.3h-0.6v-0.3c0-0.3,0-0.5-0.1-0.7c0-0.1-0.1-0.2-0.1-0.2c0,0-0.1-0.1-0.2-0.1c-0.1,0-0.3,0.1-0.3,0.2
							c-0.1,0.1-0.1,0.3-0.1,0.5c0,0.2,0,0.4,0.1,0.5c0.1,0.1,0.1,0.2,0.2,0.3c0.1,0.1,0.1,0.1,0.1,0.2l0.4,0.4
							c0.4,0.4,0.6,0.9,0.6,1.5c0,0.4-0.1,0.8-0.2,1c-0.1,0.2-0.4,0.4-0.8,0.4c-0.5,0-0.8-0.2-0.9-0.6c-0.1-0.2-0.1-0.5-0.1-0.9
							c0,0,0,0,0,0v-0.5h0.6v0.5c0,0.4,0,0.6,0.1,0.8c0.1,0.1,0.2,0.2,0.3,0.2c0.1,0,0.3,0,0.3-0.1c0.1-0.1,0.1-0.2,0.1-0.3
							c0-0.1,0-0.3,0-0.5c0-0.4-0.2-0.7-0.5-1l-0.3-0.3C118.3,95.3,118.1,95.1,118,94.8z"/>
					</g>
				</g>
			</g>
			<text transform="matrix(1 0 0 1 22.7598 60.644)" class="st4 st5 st6">&lt;</text>
			<text transform="matrix(1 0 0 1 108.4952 60.644)" class="st4 st5 st6">&gt;</text>
		</g>
	</g>
</g>
</svg>
