<?xml version="1.0" encoding="utf-8"?>
<!-- Generator: Adobe Illustrator 21.0.0, SVG Export Plug-In . SVG Version: 6.00 Build 0)  -->
<svg version="1.1" id="Layer_1" xmlns="http://www.w3.org/2000/svg" xmlns:xlink="http://www.w3.org/1999/xlink" x="0px" y="0px"
	 viewBox="0 0 150 300" style="enable-background:new 0 0 150 300;" xml:space="preserve">
<style type="text/css">
	.st0{fill:#1D1D1B;}
	.st1{fill:#33B3AD;}
	.st2{fill:#575756;}
	.st3{fill:#3C3C3B;}
	.st4{fill:#ECECEC;}
	.st5{font-family:'Arimo-Bold';}
	.st6{font-size:8.0678px;}
	.st7{font-size:14.6377px;}
	.st8{fill:none;}
	.st9{font-size:6.2733px;}
	.st10{font-size:6.0529px;}
</style>
<g>
	
		<image style="overflow:visible;opacity:0.3;" width="185" height="333" xlink:href="3016BB3E.png"  transform="matrix(1 0 0 1 -6 -5)">
	</image>
	<g>
		<g>
			<g>
				<path class="st0" d="M117.6,4.4H31.7C16.1,4.4,3.4,17.1,3.4,32.7v233.1c0,15.6,12.7,28.3,28.3,28.3h85.9v0
					c15.6,0,28.3-12.7,28.3-28.3V32.7C145.9,17.1,133.2,4.4,117.6,4.4z"/>
				<path class="st1" d="M131.9,42h-116c-1.1,0-2,0.9-2,2v209c0,1.1,0.9,2,2,2h116c1.1,0,2-0.9,2-2v-209C133.9,42.9,133,42,131.9,42
					z"/>
				<path class="st2" d="M133.9,65.4V43.9c0-1.1-0.9-2-2-2h-116c-1.1,0-2,0.9-2,2v21.5H133.9z"/>
				<path class="st3" d="M63.4,31.7h20.7c1.1,0,2-0.9,2-2s-0.9-2-2-2H63.4c-1.1,0-2,0.9-2,2S62.3,31.7,63.4,31.7z"/>
				<circle class="st3" cx="74.7" cy="19.2" r="2.1"/>
				<circle class="st3" cx="55.9" cy="29.8" r="2.1"/>
				<path class="st3" d="M74.7,279.7c-5.1,0-9.2-4.1-9.2-9.2c0-5.1,4.1-9.2,9.2-9.2c5.1,0,9.2,4.1,9.2,9.2
					C83.9,275.6,79.7,279.7,74.7,279.7z"/>
			</g>
			<text transform="matrix(1 0 0 1 31.0268 56.9115)" class="st4 st5 st6">655728693</text>
			<text transform="matrix(1 0 0 1 17.4349 58.4477)" class="st4 st5 st7">&lt;</text>
			<path class="st4" d="M120.4,80.6H27.9c-3.5,0-6.3,2.8-6.3,6.3v87.3c0,3.5,2.8,6.3,6.3,6.3l4.2,8.9l4.7-8.9h83.7
				c3.5,0,6.3-2.8,6.3-6.3V86.8C126.7,83.4,123.9,80.6,120.4,80.6z"/>
			<rect x="30" y="89.5" class="st8" width="87.3" height="76.8"/>
			<text transform="matrix(1 0 0 1 29.9818 93.9165)"><tspan x="0" y="0" class="st2 st5 st9">Lorem ipsum dolor sit amet, </tspan><tspan x="0" y="8.4" class="st2 st5 st9">consectetur adipiscing elit, sed </tspan><tspan x="0" y="16.7" class="st2 st5 st9">do eiusmod tempor incididunt ut </tspan><tspan x="0" y="25.1" class="st2 st5 st9">labore et dolore magna aliqua. </tspan><tspan x="0" y="33.5" class="st2 st5 st9">Ut enim ad minim veniam, quis </tspan><tspan x="0" y="41.8" class="st2 st5 st9">nostrud exercitation ullamco </tspan><tspan x="0" y="50.2" class="st2 st5 st9">laboris nisi ut aliquip ex ea </tspan><tspan x="0" y="58.6" class="st2 st5 st9">commodo consequat.</tspan></text>
			<text transform="matrix(1 0 0 1 104.7387 174.2475)" class="st2 st5 st10">12:05</text>
			<path class="st4" d="M118.3,47.6c0.1,0,0.1-0.1,0.2-0.1c0.5-0.2,1-0.2,1.5-0.3c0.7-0.2,1.9,2.9,1.1,3.1c-0.3,0.1-1.3,0.2-1.5,0.4
				c-0.2,0.2-0.1,0.6,0.1,0.8c0.6,0.7,1.4,1.5,2.1,2.1l0,0c0,0,0,0,0.1,0.1c0,0,0,0,0.1,0.1l0,0c0.7,0.7,1.4,1.5,2.1,2.1
				c0.3,0.2,0.7,0.3,0.8,0.1c0.2-0.3,0.3-1.2,0.4-1.5c0.3-0.8,3.3,0.5,3.1,1.1c-0.1,0.5-0.1,1.1-0.3,1.5c0,0.1-0.1,0.1-0.1,0.2
				c-1.1,1.7-3.7,1.9-5.7,0.3c-0.8-0.6-1.5-1.3-2.2-2l0,0c0,0,0,0-0.1-0.1c0,0,0,0-0.1-0.1l0,0c-0.7-0.7-1.4-1.4-2-2.2
				C116.3,51.3,116.6,48.7,118.3,47.6z"/>
		</g>
	</g>
</g>
</svg>
